#N canvas 5101 86 4800 2475 12;
#X obj 129 457 bng 15 250 50 0 empty empty empty 17 7 0 10 #fcfcfc
#000000 #000000;
#X obj 179 457 bng 15 250 50 0 empty empty empty 17 7 0 10 #fcfcfc
#000000 #000000;
#X obj 238 458 bng 15 250 50 0 empty empty empty 17 7 0 10 #fcfcfc
#000000 #000000;
#X obj 293 456 bng 15 250 50 0 empty empty empty 17 7 0 10 #fcfcfc
#000000 #000000;
#X obj 337 457 bng 15 250 50 0 empty empty empty 17 7 0 10 #fcfcfc
#000000 #000000;
#X obj 395 456 bng 15 250 50 0 empty empty empty 17 7 0 10 #fcfcfc
#000000 #000000;
#X obj 444 454 bng 15 250 50 0 empty empty empty 17 7 0 10 #fcfcfc
#000000 #000000;
#X obj 486 453 bng 15 250 50 0 empty empty empty 17 7 0 10 #fcfcfc
#000000 #000000;
#X obj 251 620 select 0;
#X floatatom 131 581 5 0 0 0 - - - 0;
#X floatatom 179 582 5 0 0 0 - - - 0;
#X floatatom 234 579 5 0 0 0 - - - 0;
#X floatatom 283 579 5 0 0 0 - - - 0;
#X floatatom 334 578 5 0 0 0 - - - 0;
#X floatatom 391 575 5 0 0 0 - - - 0;
#X floatatom 450 570 5 0 0 0 - - - 0;
#X floatatom 492 569 5 0 0 0 - - - 0;
#X text 39 532 midi notes;
#X obj 16 456 loadbang;
#X msg 129 530 60;
#X msg 484 526 60;
#X obj 540 455 bng 15 250 50 0 empty empty empty 17 7 0 10 #fcfcfc
#000000 #000000;
#X obj 582 454 bng 15 250 50 0 empty empty empty 17 7 0 10 #fcfcfc
#000000 #000000;
#X floatatom 539 569 5 0 0 0 - - - 0;
#X floatatom 588 570 5 0 0 0 - - - 0;
#X obj 633 451 bng 15 250 50 0 empty empty empty 17 7 0 10 #fcfcfc
#000000 #000000;
#X obj 675 450 bng 15 250 50 0 empty empty empty 17 7 0 10 #fcfcfc
#000000 #000000;
#X floatatom 639 567 5 0 0 0 - - - 0;
#X floatatom 681 566 5 0 0 0 - - - 0;
#X obj 735 449 bng 15 250 50 0 empty empty empty 17 7 0 10 #fcfcfc
#000000 #000000;
#X obj 777 448 bng 15 250 50 0 empty empty empty 17 7 0 10 #fcfcfc
#000000 #000000;
#X floatatom 741 565 5 0 0 0 - - - 0;
#X floatatom 783 564 5 0 0 0 - - - 0;
#X obj 28 95 tgl 15 0 empty empty empty 17 7 0 10 #fcfcfc #000000 #000000
0 1;
#X floatatom 93 83 5 0 0 0 - - - 0;
#X obj 54 148 bng 15 250 50 0 empty empty empty 17 7 0 10 #fcfcfc #000000
#000000;
#X text 135 77 changes ovverides metronome;
#X text 125 43 sets number box to 100;
#X obj 26 12 loadbang;
#X text 92 11 makes it run as soon as software loads;
#X text 138 119 create metronome;
#X obj 56 192 int 1;
#X obj 150 194 + 1;
#X text 133 170 add 1 to that value;
#X text 8 171 (or write in f);
#X floatatom 55 231 5 0 0 0 - - - 0;
#X text 110 230 now number box goes up by 1!!!;
#X obj 54 294 + 1;
#X text 97 296 add one;
#X floatatom 54 324 5 0 0 0 - - - 0;
#X text 91 256 divides count by number of total steps \, remainder
is step count;
#X text 524 405 number after sel triggered when number hits that number
;
#X text 311 124 \$1 means stores 1 variable;
#X msg 277 103 tempo \$1 permin;
#X obj 54 117 metro;
#X obj 82 656 mtof;
#X text 876 526 midi notes;
#X floatatom 80 696 5 0 0 0 - - - 0;
#X obj 47 1116 output~;
#X msg 90 46 200;
#X obj 152 399 select 1 2 3 4 5 6 7 8 9 10 11 12 13 14 15;
#X obj 825 447 bng 15 250 50 0 empty empty empty 17 7 0 10 #fcfcfc
#000000 #000000;
#X floatatom 831 563 5 0 0 0 - - - 0;
#X text 845 560 comment;
#X msg 176 533 60;
#X msg 232 532 67;
#X msg 280 528 64;
#X msg 332 529 64;
#X msg 388 528 0;
#X msg 441 527 62;
#X msg 537 528 60;
#X msg 580 527 65;
#X msg 630 524 65;
#X msg 673 523 64;
#X msg 732 522 64;
#X msg 823 520 62;
#X msg 775 521 62;
#X obj 54 261 % 16;
#X text 531 9 operating instructions: Turn output volume up;
#X text 143 658 converts midi to freq;
#X text 134 1082 don't blow up speakers!!;
#X text 128 1122 play on both speakers!!;
#X text 104 322 so now it loops from 1-16 at speed of metronome!! (4
measures 4/4 time);
#X obj 130 734 * 2;
#X obj 182 734 * 3;
#X obj 239 734 * 5;
#X obj 294 733 * 7;
#X floatatom 130 776 5 0 0 0 - - - 0;
#X floatatom 185 775 5 0 0 0 - - - 0;
#X floatatom 240 775 5 0 0 0 - - - 0;
#X floatatom 293 774 5 0 0 0 - - - 0;
#X text 352 746 runs the tone through an additive synth;
#X obj 130 799 osc~;
#X obj 185 798 osc~;
#X obj 240 798 osc~;
#X obj 293 797 osc~;
#X text 194 856;
#X floatatom 181 879 5 0 0 0 - - - 0;
#X obj 390 913 vsl 15 128 0 3000 0 0 empty empty empty 0 -9 0 10 #ff0400
#000000 #000000 0 1;
#X text 316 872 changes number which goes into low pass filter which
changes the cutoff point on low end;
#X obj 59 891 bp~ 220 1;
#X text 162 902 band pass filter;
#X text 227 844 band pass is cutting out lows and highs and only keeping
middle;
#X text 163 933 1 = quality or resonance;
#X obj 436 909 vsl 15 128 0 10 0 0 empty empty empty 0 -9 0 10 #00ff04
#000000 #000000 0 1;
#X floatatom 275 880 5 0 0 0 - - - 0;
#X text 162 918 220 = center frequency;
#X text 446 921 Controls bandwith;
#X text 114 893;
#X text 137 1036 3000 (last number) = sustain;
#X text 133 1020 0 500 (4th and 5th) = release;
#X text 130 1004 1 500 (1st and 2nd) = attack;
#X obj 950 1008 *~;
#X text 1005 1005 another volume control \, want volume to change smoothly
;
#X obj 956 968 line~;
#X text 858 885 create an envelope;
#X text 854 913 turn up in 50 ms;
#X text 1001 911 turn down in 500 ms;
#X obj 54 1083 *~;
#X floatatom 87 1048 5 0 0.5 0 - - - 0;
#X obj 882 802 bng 15 250 50 0 empty empty empty 17 7 0 10 #fcfcfc
#000000 #000000;
#X text 914 799 BANG!;
#X text 1031 836 delay the decay!;
#X obj 972 843 del 200;
#X msg 996 932 0.5 50;
#X msg 877 936 1 150;
#X connect 0 0 9 0;
#X connect 1 0 10 0;
#X connect 2 0 11 0;
#X connect 3 0 12 0;
#X connect 4 0 13 0;
#X connect 5 0 14 0;
#X connect 6 0 15 0;
#X connect 7 0 16 0;
#X connect 8 1 55 0;
#X connect 9 0 8 0;
#X connect 10 0 8 0;
#X connect 11 0 8 0;
#X connect 12 0 8 0;
#X connect 13 0 8 0;
#X connect 14 0 8 0;
#X connect 15 0 8 0;
#X connect 16 0 8 0;
#X connect 18 0 19 0;
#X connect 18 0 64 0;
#X connect 18 0 65 0;
#X connect 18 0 66 0;
#X connect 18 0 67 0;
#X connect 18 0 68 0;
#X connect 18 0 69 0;
#X connect 18 0 20 0;
#X connect 18 0 70 0;
#X connect 18 0 71 0;
#X connect 18 0 72 0;
#X connect 18 0 73 0;
#X connect 18 0 74 0;
#X connect 18 0 76 0;
#X connect 19 0 9 0;
#X connect 20 0 16 0;
#X connect 21 0 23 0;
#X connect 22 0 24 0;
#X connect 23 0 8 0;
#X connect 24 0 8 0;
#X connect 25 0 27 0;
#X connect 26 0 28 0;
#X connect 27 0 8 0;
#X connect 28 0 8 0;
#X connect 29 0 31 0;
#X connect 30 0 32 0;
#X connect 31 0 8 0;
#X connect 32 0 8 0;
#X connect 33 0 54 0;
#X connect 34 0 53 0;
#X connect 35 0 41 0;
#X connect 38 0 59 0;
#X connect 38 0 33 0;
#X connect 41 0 42 0;
#X connect 41 0 45 0;
#X connect 42 0 41 1;
#X connect 45 0 77 0;
#X connect 47 0 49 0;
#X connect 49 0 60 0;
#X connect 53 0 54 0;
#X connect 54 0 35 0;
#X connect 54 0 120 0;
#X connect 55 0 57 0;
#X connect 57 0 83 0;
#X connect 57 0 84 0;
#X connect 57 0 85 0;
#X connect 57 0 86 0;
#X connect 57 0 100 0;
#X connect 59 0 34 0;
#X connect 60 0 0 0;
#X connect 60 1 1 0;
#X connect 60 2 2 0;
#X connect 60 3 3 0;
#X connect 60 4 4 0;
#X connect 60 5 5 0;
#X connect 60 6 6 0;
#X connect 60 7 7 0;
#X connect 60 8 21 0;
#X connect 60 9 22 0;
#X connect 60 10 25 0;
#X connect 60 11 26 0;
#X connect 60 12 29 0;
#X connect 60 13 30 0;
#X connect 60 14 61 0;
#X connect 61 0 75 0;
#X connect 62 0 8 0;
#X connect 64 0 10 0;
#X connect 65 0 11 0;
#X connect 66 0 12 0;
#X connect 67 0 13 0;
#X connect 68 0 14 0;
#X connect 69 0 15 0;
#X connect 70 0 23 0;
#X connect 71 0 24 0;
#X connect 72 0 27 0;
#X connect 73 0 28 0;
#X connect 74 0 31 0;
#X connect 75 0 62 0;
#X connect 76 0 32 0;
#X connect 77 0 47 0;
#X connect 83 0 87 0;
#X connect 84 0 88 0;
#X connect 85 0 89 0;
#X connect 86 0 90 0;
#X connect 87 0 92 0;
#X connect 88 0 93 0;
#X connect 89 0 94 0;
#X connect 90 0 95 0;
#X connect 92 0 100 0;
#X connect 93 0 100 0;
#X connect 94 0 100 0;
#X connect 95 0 100 0;
#X connect 97 0 100 1;
#X connect 98 0 97 0;
#X connect 100 0 112 0;
#X connect 104 0 105 0;
#X connect 105 0 100 2;
#X connect 112 0 118 0;
#X connect 114 0 112 1;
#X connect 118 0 58 0;
#X connect 118 0 58 1;
#X connect 119 0 118 1;
#X connect 120 0 125 0;
#X connect 120 0 123 0;
#X connect 123 0 124 0;
#X connect 124 0 114 0;
#X connect 125 0 114 0;
